<svg xmlns="http://www.w3.org/2000/svg" xmlns:xlink="http://www.w3.org/1999/xlink" viewBox="0 0 42 39"><path d="M 34.981 29.215 L 31.715 24.366 C 31.369 23.852 31.411 23.166 31.817 22.7 L 35.236 18.77 L 39.958 20.044 L 35.91 23.431 L 39.008 28.914 C 39.522 29.823 39.171 30.984 38.243 31.443 L 29.697 35.672 L 29.01 34.491 L 34.472 31.406 C 35.244 30.971 35.48 29.955 34.981 29.215 Z" fill="rgb(255,255,255)" opacity="0.5"></path><path d="M 27.902 38.979 L 29.527 38.979 L 26.914 34.254 C 26.006 32.614 25.333 30.851 24.912 29.018 L 23.32 22.071 L 22.629 22.127 C 21.36 22.23 20.085 22.212 18.82 22.071 L 22.277 30.242 C 22.842 31.576 23.548 32.843 24.384 34.02 Z" fill="rgb(255,255,255)" opacity="0.5"></path><path d="M 5.06 4.393 L 4.159 4.393 C 3.461 4.393 2.774 4.563 2.155 4.89 L 1.949 4.998 C 1.613 5.176 1.217 5.194 0.867 5.048 C 0.343 4.83 0 4.312 0 3.736 L 0 2.38 C 0 1.066 1.049 0 2.343 0 L 13.448 0 C 13.387 0.619 12.52 1.858 11.189 1.858 C 10.208 1.858 9.063 1.672 8.944 1.473 L 14.701 11.701 C 15.561 13.228 17.483 13.752 18.98 12.866 L 24.432 9.64 C 26.436 8.453 28.936 8.556 30.841 9.902 L 40.018 16.389 C 41.208 17.229 41.803 18.699 41.539 20.147 C 41.514 20.285 41.44 20.405 41.337 20.487 L 38.53 23.611 C 38.154 24.03 37.945 24.576 37.945 25.143 C 37.945 29.494 36.442 33.707 33.697 37.048 L 32.092 39.001 L 30.402 39.001 L 33.444 34.042 C 34.459 32.388 34.811 30.401 34.428 28.491 L 33.496 23.852 C 33.424 23.494 33.497 23.121 33.699 22.819 L 34.758 21.231 L 30.077 21.736 L 28.049 22.445 C 25.388 23.377 22.798 23.659 20.439 23.192 L 17.169 26.606 C 16.479 27.326 16.514 28.483 17.247 29.159 L 23.68 35.09 L 22.878 36.247 L 16.249 31.711 C 13.69 29.961 12.931 26.481 14.523 23.796 L 16.053 21.216 C 15.059 20.454 14.15 19.486 13.348 18.3 C 11.755 15.942 11.456 15.413 9.187 11.353 C 7.384 8.127 6.088 5.633 5.632 4.745 C 5.521 4.528 5.301 4.393 5.06 4.393 Z" fill="rgb(255,255,255)"></path><path d="" fill="rgba(0,170,255,0.5)" stroke="#0AF"></path><path d="" fill="rgba(0,170,255,0.5)" stroke="#0AF"></path><path d="" fill="rgba(0,170,255,0.5)" stroke="#0AF"></path><path d="" fill="rgba(0,170,255,0.5)" stroke="#0AF"></path><path d="" fill="rgba(0,170,255,0.5)" stroke="#0AF"></path><path d="" fill="rgba(0,170,255,0.5)" stroke="#0AF"></path><path d="" fill="rgba(0,170,255,0.5)" stroke="#0AF"></path><path d="" fill="rgba(0,170,255,0.5)" stroke="#0AF"></path><path d="" fill="rgba(0,170,255,0.5)" stroke="#0AF"></path></svg>